<svg width="89" height="69" viewBox="0 0 89 69" fill="none" xmlns="http://www.w3.org/2000/svg">
<path d="M44.0835 59.7999L38.7805 68.2998L36.2446 59.0582L28.4809 66.3235L28.8602 56.8789L19.0889 62.4862L22.3606 53.3866L11.1491 57.0117L17.1232 48.785L5.12427 50.2166L13.4538 43.3422L1.36289 42.4961L11.5635 37.3732L0.0839844 34.2994L11.5635 31.2264L1.36289 26.1035L13.4538 25.2574L5.12427 18.3838L17.1232 19.8138L11.1491 11.5887L22.3606 15.2122L19.0889 6.11341L28.8602 11.7207L28.4809 2.2761L36.2446 9.5406L38.7805 0.299805L44.0835 8.80054L49.3875 0.299805L51.9234 9.5406L59.6862 2.2761L59.3078 11.7207L69.0791 6.11341L65.8074 15.2122L77.018 11.5887L71.0448 19.8138L83.0437 18.3838L74.7142 25.2574L86.8051 26.1035L76.6045 31.2264L88.084 34.2994L76.6045 37.3732L86.8051 42.4961L74.7142 43.3422L83.0437 50.2166L71.0448 48.785L77.018 57.0117L65.8074 53.3866L69.0791 62.4862L59.3078 56.8789L59.6862 66.3235L51.9234 59.0582L49.3875 68.2998L44.0835 59.7999Z" fill="#E30613"/>
</svg>
