<svg width="48" height="48" viewBox="0 0 48 48" fill="none" xmlns="http://www.w3.org/2000/svg">
<g clip-path="url(#clip0_10891_4624)">
<g filter="url(#filter0_f_10891_4624)">
<path d="M14.9103 37.8554L15.5214 38.2174C18.088 39.7407 21.0309 40.5464 24.032 40.5478H24.0383C33.2546 40.5478 40.7551 33.0489 40.7589 23.8321C40.7606 19.3657 39.023 15.1657 35.866 12.0062C34.3176 10.4481 32.4756 9.21258 30.4465 8.37116C28.4173 7.52974 26.2415 7.09915 24.0448 7.10432C14.8215 7.10432 7.32063 14.6024 7.31735 23.8187C7.31281 26.9658 8.19904 30.0499 9.87359 32.7145L10.2714 33.3467L8.58194 39.5145L14.9103 37.8554ZM3.75164 44.2929L6.60591 33.8716C4.84561 30.8219 3.91952 27.362 3.92062 23.8173C3.92526 12.7284 12.9493 3.70703 24.0386 3.70703C29.4198 3.70977 34.4707 5.80391 38.2694 9.60532C42.0681 13.4067 44.1581 18.4596 44.1562 23.8334C44.1513 34.9216 35.1259 43.9445 24.0383 43.9445H24.0295C20.6629 43.9432 17.3547 43.0986 14.4162 41.4963L3.75164 44.2929Z" fill="#B3B3B3"/>
</g>
<path d="M3.5452 44.0861L6.39947 33.6648C4.63614 30.6077 3.70992 27.1397 3.71418 23.6105C3.71883 12.5216 12.7429 3.50024 23.8321 3.50024C29.2134 3.50298 34.2643 5.59713 38.063 9.39853C41.8616 13.1999 43.9517 18.2528 43.9498 23.6267C43.9449 34.7148 34.9194 43.7378 23.8318 43.7378H23.8231C20.4564 43.7364 17.1483 42.8918 14.2098 41.2895L3.5452 44.0861Z" fill="white"/>
<path d="M23.8381 6.89775C14.6147 6.89775 7.11392 14.3958 7.11064 23.6121C7.1061 26.7592 7.99233 29.8433 9.66688 32.5079L10.0647 33.1404L8.37523 39.3083L14.7039 37.6488L15.315 38.0109C17.8816 39.5341 20.8245 40.3396 23.8256 40.3412H23.8318C33.0481 40.3412 40.5489 32.8423 40.5525 23.6255C40.5595 21.4287 40.1306 19.2524 39.2907 17.2224C38.4508 15.1925 37.2166 13.3494 35.6596 11.7997C34.1112 10.2415 32.2691 9.00597 30.2399 8.16455C28.2107 7.32313 26.0348 6.89255 23.8381 6.89775Z" fill="url(#paint0_linear_10891_4624)"/>
<path fill-rule="evenodd" clip-rule="evenodd" d="M18.8039 15.2031C18.4271 14.3662 18.0306 14.3492 17.6727 14.3348L16.7092 14.323C16.374 14.323 15.8293 14.4488 15.3688 14.9519C14.9084 15.455 13.6094 16.6709 13.6094 19.144C13.6094 21.6171 15.4107 24.0068 15.6617 24.3426C15.9127 24.6784 19.1391 29.9152 24.2485 31.9301C28.4945 33.6045 29.3585 33.2715 30.2805 33.1878C31.2025 33.1042 33.2546 31.9719 33.6732 30.7981C34.0918 29.6243 34.0921 28.6187 33.9665 28.4084C33.841 28.1981 33.5058 28.0732 33.0027 27.8216C32.4996 27.5701 30.0287 26.3542 29.568 26.1863C29.1073 26.0184 28.7723 25.935 28.4368 26.4381C28.1013 26.9412 27.1392 28.0729 26.8458 28.4084C26.5524 28.7439 26.2596 28.786 25.7565 28.5347C25.2534 28.2834 23.6347 27.7525 21.7142 26.04C20.2199 24.7076 19.2113 23.0622 18.9176 22.5593C18.624 22.0565 18.8864 21.7842 19.1385 21.5337C19.3641 21.3084 19.6411 20.9467 19.8929 20.6533C20.1447 20.3599 20.2276 20.1502 20.3949 19.8153C20.5622 19.4803 20.4789 19.1861 20.3531 18.9348C20.2273 18.6836 19.2506 16.1973 18.8039 15.2031Z" fill="white"/>
</g>
<defs>
<filter id="filter0_f_10891_4624" x="-3.31036" y="-3.35497" width="54.5286" height="54.7099" filterUnits="userSpaceOnUse" color-interpolation-filters="sRGB">
<feFlood flood-opacity="0" result="BackgroundImageFix"/>
<feBlend mode="normal" in="SourceGraphic" in2="BackgroundImageFix" result="shape"/>
<feGaussianBlur stdDeviation="3.531" result="effect1_foregroundBlur_10891_4624"/>
</filter>
<linearGradient id="paint0_linear_10891_4624" x1="23.4912" y1="8.90468" x2="23.6607" y2="37.4842" gradientUnits="userSpaceOnUse">
<stop stop-color="#57D163"/>
<stop offset="1" stop-color="#23B33A"/>
</linearGradient>
<clipPath id="clip0_10891_4624">
<rect width="47.9081" height="48" fill="white"/>
</clipPath>
</defs>
</svg>
